<svg height="1358" width="720" xmlns="http://www.w3.org/2000/svg">
<rect height="1358" fill="#555" width="720"></rect>
<text fill="#7f7" font-family="Courier New" font-size="12" xml:space="preserve">
<tspan x="10" y="26">4 megabytes installed</tspan>
<tspan x="10" y="42"></tspan>
<tspan x="10" y="58">node_modules</tspan>
<tspan x="10" y="74">└─┬ gulp-svgstore@6.1.0 </tspan>
<tspan x="10" y="90">  ├─┬ cheerio@0.22.0 </tspan>
<tspan x="10" y="106">  │ ├─┬ css-select@1.2.0 </tspan>
<tspan x="10" y="122">  │ │ ├── boolbase@1.0.0 </tspan>
<tspan x="10" y="138">  │ │ ├── css-what@2.1.0 </tspan>
<tspan x="10" y="154">  │ │ ├── domutils@1.5.1 </tspan>
<tspan x="10" y="170">  │ │ └── nth-check@1.0.1 </tspan>
<tspan x="10" y="186">  │ ├─┬ dom-serializer@0.1.0 </tspan>
<tspan x="10" y="202">  │ │ └── domelementtype@1.1.3 </tspan>
<tspan x="10" y="218">  │ ├── entities@1.1.1 </tspan>
<tspan x="10" y="234">  │ ├─┬ htmlparser2@3.9.2 </tspan>
<tspan x="10" y="250">  │ │ ├── domelementtype@1.3.0 </tspan>
<tspan x="10" y="266">  │ │ ├── domhandler@2.3.0 </tspan>
<tspan x="10" y="282">  │ │ ├── inherits@2.0.3 </tspan>
<tspan x="10" y="298">  │ │ └─┬ readable-stream@2.2.9 </tspan>
<tspan x="10" y="314">  │ │   ├── buffer-shims@1.0.0 </tspan>
<tspan x="10" y="330">  │ │   ├── core-util-is@1.0.2 </tspan>
<tspan x="10" y="346">  │ │   ├── isarray@1.0.0 </tspan>
<tspan x="10" y="362">  │ │   ├── process-nextick-args@1.0.7 </tspan>
<tspan x="10" y="378">  │ │   ├── string_decoder@1.0.0 </tspan>
<tspan x="10" y="394">  │ │   └── util-deprecate@1.0.2 </tspan>
<tspan x="10" y="410">  │ ├── lodash.assignin@4.2.0 </tspan>
<tspan x="10" y="426">  │ ├── lodash.bind@4.2.1 </tspan>
<tspan x="10" y="442">  │ ├── lodash.defaults@4.2.0 </tspan>
<tspan x="10" y="458">  │ ├── lodash.filter@4.6.0 </tspan>
<tspan x="10" y="474">  │ ├── lodash.flatten@4.4.0 </tspan>
<tspan x="10" y="490">  │ ├── lodash.foreach@4.5.0 </tspan>
<tspan x="10" y="506">  │ ├── lodash.map@4.6.0 </tspan>
<tspan x="10" y="522">  │ ├── lodash.merge@4.6.0 </tspan>
<tspan x="10" y="538">  │ ├── lodash.pick@4.4.0 </tspan>
<tspan x="10" y="554">  │ ├── lodash.reduce@4.6.0 </tspan>
<tspan x="10" y="570">  │ ├── lodash.reject@4.6.0 </tspan>
<tspan x="10" y="586">  │ └── lodash.some@4.6.0 </tspan>
<tspan x="10" y="602">  └─┬ gulp-util@3.0.8 </tspan>
<tspan x="10" y="618">    ├── array-differ@1.0.0 </tspan>
<tspan x="10" y="634">    ├── array-uniq@1.0.3 </tspan>
<tspan x="10" y="650">    ├── beeper@1.1.1 </tspan>
<tspan x="10" y="666">    ├─┬ chalk@1.1.3 </tspan>
<tspan x="10" y="682">    │ ├── ansi-styles@2.2.1 </tspan>
<tspan x="10" y="698">    │ ├── escape-string-regexp@1.0.5 </tspan>
<tspan x="10" y="714">    │ ├─┬ has-ansi@2.0.0 </tspan>
<tspan x="10" y="730">    │ │ └── ansi-regex@2.1.1 </tspan>
<tspan x="10" y="746">    │ ├── strip-ansi@3.0.1 </tspan>
<tspan x="10" y="762">    │ └── supports-color@2.0.0 </tspan>
<tspan x="10" y="778">    ├── dateformat@2.0.0 </tspan>
<tspan x="10" y="794">    ├─┬ fancy-log@1.3.0 </tspan>
<tspan x="10" y="810">    │ └── time-stamp@1.0.1 </tspan>
<tspan x="10" y="826">    ├─┬ gulplog@1.0.0 </tspan>
<tspan x="10" y="842">    │ └── glogg@1.0.0 </tspan>
<tspan x="10" y="858">    ├─┬ has-gulplog@0.1.0 </tspan>
<tspan x="10" y="874">    │ └── sparkles@1.0.0 </tspan>
<tspan x="10" y="890">    ├── lodash._reescape@3.0.0 </tspan>
<tspan x="10" y="906">    ├── lodash._reevaluate@3.0.0 </tspan>
<tspan x="10" y="922">    ├── lodash._reinterpolate@3.0.0 </tspan>
<tspan x="10" y="938">    ├─┬ lodash.template@3.6.2 </tspan>
<tspan x="10" y="954">    │ ├── lodash._basecopy@3.0.1 </tspan>
<tspan x="10" y="970">    │ ├── lodash._basetostring@3.0.1 </tspan>
<tspan x="10" y="986">    │ ├── lodash._basevalues@3.0.0 </tspan>
<tspan x="10" y="1002">    │ ├── lodash._isiterateecall@3.0.9 </tspan>
<tspan x="10" y="1018">    │ ├─┬ lodash.escape@3.2.0 </tspan>
<tspan x="10" y="1034">    │ │ └── lodash._root@3.0.1 </tspan>
<tspan x="10" y="1050">    │ ├─┬ lodash.keys@3.1.2 </tspan>
<tspan x="10" y="1066">    │ │ ├── lodash._getnative@3.9.1 </tspan>
<tspan x="10" y="1082">    │ │ ├── lodash.isarguments@3.1.0 </tspan>
<tspan x="10" y="1098">    │ │ └── lodash.isarray@3.0.4 </tspan>
<tspan x="10" y="1114">    │ ├── lodash.restparam@3.6.1 </tspan>
<tspan x="10" y="1130">    │ └── lodash.templatesettings@3.1.1 </tspan>
<tspan x="10" y="1146">    ├── minimist@1.2.0 </tspan>
<tspan x="10" y="1162">    ├─┬ multipipe@0.1.2 </tspan>
<tspan x="10" y="1178">    │ └─┬ duplexer2@0.0.2 </tspan>
<tspan x="10" y="1194">    │   └─┬ readable-stream@1.1.14 </tspan>
<tspan x="10" y="1210">    │     ├── isarray@0.0.1 </tspan>
<tspan x="10" y="1226">    │     └── string_decoder@0.10.31 </tspan>
<tspan x="10" y="1242">    ├── object-assign@3.0.0 </tspan>
<tspan x="10" y="1258">    ├── replace-ext@0.0.1 </tspan>
<tspan x="10" y="1274">    ├─┬ through2@2.0.3 </tspan>
<tspan x="10" y="1290">    │ └── xtend@4.0.1 </tspan>
<tspan x="10" y="1306">    └─┬ vinyl@0.5.3 </tspan>
<tspan x="10" y="1322">      ├── clone@1.0.2 </tspan>
<tspan x="10" y="1338">      └── clone-stats@0.0.1</tspan>
</text>
</svg>
